PathFileType	4	(X/Y/Z)	Patient4_TMGait_0pt3_03_left_30.trc.trc
DataRate	CameraRate	NumFrames	NumMarkers	Units	OrigDataRate	OrigDataStartFrame	OrigNumFrames
53.231939163498	53.231939163498	7	33	mm	53.231939163498	36	       141
Frame#	Time	Sacral			L.Shoulder			Chest			R.Shoulder			Neck			R.ASIS			L.ASIS			R.Thigh.Superior			R.Thigh.Lateral			R.Thigh.Inferior			R.Patella			L.Thigh.Superior			L.Thigh.Lateral			L.Thigh.Inferior			L.Patella			L.Shank.Superior			L.Shank.Lateral			L.Shank.Inferior			R.Shank.Superior			R.Shank.Lateral			R.Shank.Inferior			R.Heel			R.Midfoot.Superior			R.Midfoot.Lateral			R.Toe			L.Heel			L.Midfoot.Lateral			L.Midfoot.Superior			L.Toe			L.Elbow			L.Wrist			R.Elbow			R.Wrist			
		X1	Y1	Z1	X2	Y2	Z2	X3	Y3	Z3	X4	Y4	Z4	X5	Y5	Z5	X6	Y6	Z6	X7	Y7	Z7	X8	Y8	Z8	X9	Y9	Z9	X10	Y10	Z10	X11	Y11	Z11	X12	Y12	Z12	X13	Y13	Z13	X14	Y14	Z14	X15	Y15	Z15	X16	Y16	Z16	X17	Y17	Z17	X18	Y18	Z18	X19	Y19	Z19	X20	Y20	Z20	X21	Y21	Z21	X22	Y22	Z22	X23	Y23	Z23	X24	Y24	Z24	X25	Y25	Z25	X26	Y26	Z26	X27	Y27	Z27	X28	Y28	Z28	X29	Y29	Z29	X30	Y30	Z30	X31	Y31	Z31	X32	Y32	Z32	X33	Y33	Z33	

36	53.817500000000	688.545798097022	1007.003096350096	539.020077036557	851.698551402091	1418.068342158998	324.916182057975	978.150362925772	1348.202160082409	468.281840858105	929.049034080179	1429.223086283197	650.399879682345	858.382041822757	1483.893818087719	481.657952516255	924.594981664635	922.793485201366	627.285005050275	880.970483278759	950.682569887591	357.166298257787	905.753732332280	708.983308960495	602.883584965887	799.988415078983	620.854375296062	671.271763073381	853.261519086023	550.579650498886	589.757010739818	826.023507000372	461.747409282206	599.761146290613	956.823927158594	763.577665921042	401.587549303957	898.386538476225	633.698527149727	330.066223042201	993.299417197275	571.393567168732	396.808997464500	1006.279806816199	499.198316523730	401.469517358562	983.100958612276	424.705548023231	389.878375537038	904.142666409918	307.730267039931	328.800860455254	956.612948935888	195.655750675504	397.242127506494	767.542174541262	387.420224567341	611.839300522588	666.159888330338	315.188488649374	677.970508479543	675.034751332606	209.523573990920	619.753007672797	497.751496073455	76.478676588868	591.121904171339	674.078669596988	103.042084513613	635.972985084905	575.574064524846	54.350461006706	667.797953366652	781.036467420106	36.518304622937	667.384732414470	831.315077334751	38.701473334549	423.433022453685	911.343402374800	36.355737641784	348.609503390807	993.570825871076	96.065439138931	383.007066815926	1122.922563634412	42.278272200866	363.217871370962	744.534730096364	1077.018339526706	232.386869090919	773.673768968722	817.381114791231	255.667939204871	1114.339876220680	1144.927779654649	745.786817900838	1339.011539344299	1232.620337080497	665.456766047926	
37	53.836285714286	689.923308057410	1007.865306454458	533.458973292750	854.697990811261	1418.907472801978	320.531352431677	979.909007315114	1349.039859389933	465.021771956981	929.202755739316	1430.203403949767	646.603136288099	859.825714676290	1484.763190177655	477.535281421835	925.122689012853	923.810160805758	623.831330812117	883.834258648957	951.166075718729	353.369668206266	905.947644847278	709.886203735527	600.833674505605	799.459208193185	622.357754868283	669.041556807604	853.575362048014	551.295044936935	588.707863329170	826.129778775717	462.014171692738	599.481058255706	958.588058981700	763.419758769814	398.647644176107	899.634491366008	633.473516290310	327.640040836652	993.962390110291	570.859865031199	394.977237706151	1006.655525572227	498.387311766414	400.090309564514	982.480802352826	423.890977008463	388.863023998169	902.408991656288	307.616787253524	327.998667606501	952.973811722085	195.222013343483	397.072999523854	766.566859194497	388.452896582538	611.392170231113	663.823379409484	317.810049734827	677.119941101042	672.180790885712	211.486596273392	619.857090152777	493.384918755011	80.637124092857	591.292053684804	670.277729415636	103.836998187379	636.544559435500	570.790912428362	56.647304012695	667.874975154291	775.682688469377	36.451058906342	667.304663558941	826.006862200950	38.756995190827	423.431449634254	906.048995263956	36.503014235927	348.693277544548	988.251842885976	96.161186183122	383.149715788831	1117.645303702845	42.129577580058	363.270129635427	752.243899720631	1077.010885990613	224.369327628783	789.446522277673	818.209924799652	246.111204319350	1112.953282121905	1144.343730172732	742.321300847512	1342.355986069601	1222.282822758150	664.480064258768	
38	53.855071428571	691.107418993738	1008.630494894645	527.902434894449	857.724075272745	1419.691960128117	316.235758105654	981.552033468560	1349.819561302633	461.946250569391	929.121502250155	1431.160906849726	642.927760520124	861.203642006697	1485.602730932925	473.487978136796	925.427177039377	924.776966920688	620.420768056170	886.526401760077	951.630524453017	349.613261080304	906.454943167190	710.805768253851	598.687471590822	799.523733126487	623.619208044842	666.705495128136	854.669127414684	551.903637700295	587.546913952183	827.177420332344	461.950349946124	599.197811057082	960.050456373323	763.076276893353	395.443401952435	900.322696720989	633.162672832455	325.125742067869	994.069704410611	570.206258982601	392.964217435810	1006.389062178329	497.530834416200	398.517704016503	981.296771744616	423.057766207287	387.672738675334	900.175159576841	307.403970575355	327.132281718775	949.089856204452	194.818153329134	396.797031241113	766.366156480606	389.261175665021	610.900564623653	662.137584308977	320.404906287791	676.155426184884	669.790089511323	213.409256337442	619.887645036754	489.238025939943	85.108894686137	591.413686637823	666.660545528757	104.585359974054	637.029141110003	566.136373316583	59.165245306233	667.924151228383	770.339775712624	36.407864703043	667.213775039832	820.660322824320	38.816351647169	423.451411266346	900.703563876347	36.617387893343	348.778433738274	982.878601948788	96.253243875766	383.236436120334	1112.304716341272	42.010056414129	363.287759401007	760.470510355248	1076.953745219987	216.438982899193	805.321536088371	819.153763322336	236.556894618083	1110.779942136800	1143.310571725197	739.203852439898	1345.165412848546	1209.824814364034	664.463152867085	
39	53.873857142857	692.088632532509	1009.269657463736	522.385338211001	860.700211678365	1420.398977093257	312.051270219313	983.035176296909	1350.527438208036	459.045914026702	928.801193305502	1432.070303766032	639.380577540807	862.479199571911	1486.393543614961	469.522763931345	925.515995625216	925.676233565082	617.043880262905	889.012981399354	952.075802888315	345.899777120584	907.370622446712	711.726110634478	596.425438782217	800.333872276935	624.581284055044	664.266934265180	856.704394816007	552.373540670703	586.249054793096	829.338682463147	461.519188970446	598.892105539909	961.247579912645	762.581794289787	392.006331761752	900.544357415531	632.788096421432	322.537987054921	993.712316728404	569.462280394684	390.795684640918	1005.577814868230	496.644832766316	396.780567223745	979.641725626785	422.210577728029	386.328826032355	897.526331689084	307.110132604507	326.187981503024	944.990375211702	194.431102793551	396.426116451525	767.100776624069	389.806139604603	610.351371660204	661.265634510745	322.986710012594	675.085947178545	667.963421847541	215.312682209771	619.847630955800	485.396500163018	90.036746049682	591.491280242541	663.270284993439	105.314514638452	637.422235132570	561.658783322716	62.011868666167	667.950033451901	765.001211143523	36.353445042895	667.120192072945	815.251658685614	38.882237450489	423.479362714925	895.286782178843	36.696793084903	348.852568061216	977.449278262093	96.314919841593	383.270665132472	1106.891436107029	41.871147927985	363.274356411491	769.331794409067	1076.772203660640	208.694881938819	821.246916142642	820.090943567434	227.091015037093	1107.690434703494	1141.742298015995	736.462253035524	1346.998155977447	1195.255257835433	665.394300295697	
40	53.892642857143	692.865846649220	1009.766996320405	516.936618378699	863.559799240233	1421.021295595880	308.000414933154	984.320052473615	1351.160403449734	456.313864631307	928.237196788524	1432.908341969962	635.973408247689	863.615215712050	1487.124586696282	465.650682669014	925.403967185494	926.500573777470	613.692621727894	891.273462300434	952.502037990069	342.233582704769	908.778327054502	712.643366907920	594.044319674239	802.017390410050	625.214927649356	661.741364311882	859.811062229211	552.695481303459	584.801127707506	832.748138712844	460.724331338412	598.547448768660	962.212031689071	761.967819879760	388.378258991334	900.391740116135	632.369266664022	319.890162736556	992.981717567349	568.654301793000	388.499151003612	1004.326816017713	495.743073276530	394.908261526293	977.612459439682	421.354267351558	384.855763261361	894.551230766115	306.753601203867	325.159923413204	940.709032526761	194.051508166380	395.975338562629	768.908700102482	390.080683224677	609.736348614555	661.357536368303	325.595664169086	673.928196993282	666.800494519894	217.248447879388	619.746402204961	481.972655156032	95.601255610750	591.527070740054	660.158640093740	106.077566322232	637.724802779068	557.421565256847	65.328670434082	667.955381146314	759.654783529254	36.244122242816	667.033795503000	809.772804061250	38.953714604996	423.503200903154	889.794562303963	36.743219752318	348.906776905136	971.966686082568	96.335342829491	383.257717527706	1101.407306433955	41.693794058851	363.235991237505	778.905680688628	1076.433150095635	201.229051848037	837.186728276815	820.938407131260	217.808303852766	1103.548754625786	1139.570694312989	734.119212260019	1347.399473496366	1178.622568789634	667.241794055821	
41	53.911428571429	693.442737539734	1010.115615605955	511.580091251680	866.251988451636	1421.562157848119	304.105976183025	985.376972988373	1351.720170852036	453.747885795831	927.423802868287	1433.650706470354	632.722620381151	864.576548703141	1487.788176213476	461.886497590640	925.111601329548	927.247722292158	610.363326508269	893.298811658989	952.905508423949	338.621977834106	910.744732665992	713.564349524201	591.552363179846	804.672740178607	625.518440474145	659.151452017825	864.079947079864	552.882953185183	583.196226048092	837.497186824765	459.606508778271	598.144124159720	962.972345201912	761.260163649741	384.611038543696	899.951688153853	631.918980507585	317.197503020625	991.966342645626	567.802565056460	386.105850964523	1002.742700618524	494.833715949541	392.932127573031	975.304104219702	420.490644723415	383.282015869899	891.335469377764	306.349952920582	324.052224533619	936.281535522309	193.671444665439	395.462319382921	771.897969778493	390.108008749249	609.046600949083	662.542668873496	328.292664577579	672.699623142193	666.395062696071	219.293912691669	619.593070007199	479.103284632465	102.004764137420	591.514767166310	657.382939274366	106.953531083183	637.938516633477	553.503341398928	69.283050959859	667.936276631023	754.283890820790	36.032664707928	666.965148412181	804.227174752391	39.027301845997	423.513766620429	884.233984736689	36.761034619527	348.935926069637	966.436535913995	96.314899416178	383.204468467836	1095.861490195854	41.479513868536	363.179493118713	789.219655544693	1075.943711267083	194.121599889857	853.121064339512	821.658745989631	208.810340515229	1098.222940794970	1136.752053651831	732.186525290629	1345.925802555360	1160.019118321423	669.955557025813	
42	53.930214285714	693.823628228421	1010.312630244370	506.335245060053	868.744099477224	1422.029063046499	300.391045158332	986.186397321615	1352.207319271336	451.351718788035	926.354430222185	1434.269647057355	629.648169410106	865.332838883656	1488.375465691730	458.248360488120	924.662521232496	927.915756362226	607.058606449657	895.089195673964	953.276056017723	335.075926083850	913.314248072937	714.504869871279	588.961935840489	808.365925426206	625.514315760530	656.520655835089	869.558323643615	552.970730270668	581.426663897553	843.632334676995	458.236451507275	597.652982178026	963.554976246719	760.477938557945	380.766793492330	899.305049290640	631.440986506105	314.481559291018	990.751033850055	566.919667971470	383.655140979174	1000.931214557975	493.917300566269	390.889898524934	972.807793705324	419.616107644907	381.642962085505	887.958609782809	305.910711256315	322.880979679682	931.744604091743	193.282470535619	394.907616175425	776.141342512313	389.936681877963	608.266541401865	664.923532415480	331.150178386096	671.410279581905	666.830307376757	221.543563483607	619.388676224380	476.943771360050	109.448470130818	591.433074286012	655.004158896127	108.044344367366	638.060904136294	549.997074943549	74.053996992877	667.876791115955	748.872305414884	35.675390988560	666.923948209748	798.625169191826	39.098050720102	423.505554035728	878.618298753738	36.755653893041	348.938482955683	960.865866030807	96.260710726748	383.119360981025	1090.266740154968	41.241741236894	363.111268994447	800.245435347195	1075.344191966230	187.437183329960	869.046640366419	822.260959686534	200.201243271368	1091.596315319169	1133.271137244224	730.659418023806	1342.166017979760	1139.580394855331	673.468567262883	
